# xmcd CD database file
#
# Track frame offsets:
#	150
#	11198
#	21702
#	31077
#	42590
#	53341
#	63023
#	72591
#	81591
#	92841
#	101397
#	114147
#	125022
#	137228
#	147465
#	156561
#	167670
#	178470
#	190179
#	200619
#
# Disc length: 2824 seconds
#
# Revision: 0
# Processed by: cddbd v1.5.2PL0 Copyright (c) Steve Scherf et al.
# Submitted via: CDex 1.70beta2
#
DISCID=2b0b0614
DTITLE=Jim Reeves - The Country Music Gentleman CD 2
DYEAR=1900
DGENRE=Country
TTITLE0=According To My Heart
TTITLE1=Hillbilly Waltz
TTITLE2=Waiting For A Train
TTITLE3=Roly Poly
TTITLE4=My Lips Are Sealed
TTITLE5=Waltzing On Top Of The World
TTITLE6=Tweedle O'Twill
TTITLE7=Pickin' A Chicken
TTITLE8=Each Time You Leave
TTITLE9=Breeze
TTITLE10=Have I Told You Lately That I Love You
TTITLE11=Oklahoma Hills
TTITLE12=Am I Losing You
TTITLE13=Look Behind You
TTITLE14=Young Hearts
TTITLE15=My Happiness
TTITLE16=Blues In My Heart
TTITLE17=Final Affair
TTITLE18=Two Shadows On Your Window
TTITLE19=Anna Marie
EXTD=
EXTT0=
EXTT1=
EXTT2=
EXTT3=
EXTT4=
EXTT5=
EXTT6=
EXTT7=
EXTT8=
EXTT9=
EXTT10=
EXTT11=
EXTT12=
EXTT13=
EXTT14=
EXTT15=
EXTT16=
EXTT17=
EXTT18=
EXTT19=
PLAYORDER=
